HIERARCHY
ROOT Pelvis
{
	OFFSET 0.000000 0.000000 0.000000
	CHANNELS 6 Xposition Yposition Zposition Xrotation Yrotation Zrotation
	JOINT LeftUpLeg_virtual
	{
		OFFSET 0.000000 0.000000 0.000000
		CHANNELS 3 Xrotation Yrotation Zrotation
		JOINT LeftUpLeg
		{
			OFFSET 8.479700 -4.795502 -0.379100
			CHANNELS 3 Xrotation Yrotation Zrotation
			JOINT LeftLeg
			{
				OFFSET 0.024144 -32.555107 0.112900
				CHANNELS 3 Xrotation Yrotation Zrotation
				JOINT LeftFoot
				{
					OFFSET -0.024144 -32.638630 -3.012600
					CHANNELS 3 Xrotation Yrotation Zrotation
					JOINT LeftToeBase
					{
						OFFSET 0.970200 -13.225400 11.864200
						CHANNELS 3 Xrotation Yrotation Zrotation
						End Site
						{
							OFFSET 0 0 0
						}
					}
				}
			}
		}
	}
	JOINT RightUpLeg_virtual
	{
		OFFSET 0.000000 0.000000 0.000000
		CHANNELS 3 Xrotation Yrotation Zrotation
		JOINT RightUpLeg
		{
			OFFSET -8.479700 -4.795502 -0.379100
			CHANNELS 3 Xrotation Yrotation Zrotation
			JOINT RightLeg
			{
				OFFSET -0.023144 -32.555092 0.112900
				CHANNELS 3 Xrotation Yrotation Zrotation
				JOINT RightFoot
				{
					OFFSET 0.023144 -32.638641 -3.012700
					CHANNELS 3 Xrotation Yrotation Zrotation
					JOINT RightToeBase
					{
						OFFSET -0.970200 -13.225400 11.864200
						CHANNELS 3 Xrotation Yrotation Zrotation
						End Site
						{
							OFFSET 0 0 0
						}
					}
				}
			}
		}
	}
	JOINT Hips_virtual
	{
		OFFSET 0.000000 0.000000 0.000000
		CHANNELS 3 Xrotation Yrotation Zrotation
		JOINT Hips
		{
			OFFSET -0.000000 -0.000000 -0.000000
			CHANNELS 3 Xrotation Yrotation Zrotation
			JOINT Spine
			{
				OFFSET 0.000000 7.722000 1.166200
				CHANNELS 3 Xrotation Yrotation Zrotation
				JOINT Spine1
				{
					OFFSET 0.000000 12.024101 0.248800
					CHANNELS 3 Xrotation Yrotation Zrotation
					JOINT Spine2
					{
						OFFSET 0.000000 11.502998 -0.491200
						CHANNELS 3 Xrotation Yrotation Zrotation
						JOINT Neck_virtual
						{
							OFFSET 0.000000 0.000000 0.000000
							CHANNELS 3 Xrotation Yrotation Zrotation
							JOINT Neck
							{
								OFFSET 0.000000 18.430702 -3.123100
								CHANNELS 3 Xrotation Yrotation Zrotation
								JOINT Head
								{
									OFFSET 0.000000 9.051102 1.034000
									CHANNELS 3 Xrotation Yrotation Zrotation
									End Site
									{
										OFFSET 0 0 0
									}
								}
							}
						}
						JOINT LeftShoulder_virtual
						{
							OFFSET 0.000000 0.000000 0.000000
							CHANNELS 3 Xrotation Yrotation Zrotation
							JOINT LeftShoulder
							{
								OFFSET 6.197800 13.665199 -4.064700
								CHANNELS 3 Xrotation Yrotation Zrotation
								JOINT LeftArm
								{
									OFFSET 7.778100 -0.187103 -1.709300
									CHANNELS 3 Xrotation Yrotation Zrotation
									JOINT LeftForeArm
									{
										OFFSET 22.049376 0.000000 0.000000
										CHANNELS 3 Xrotation Yrotation Zrotation
										JOINT LeftHand
										{
											OFFSET 23.009392 0.000000 0.000000
											CHANNELS 3 Xrotation Yrotation Zrotation
											End Site
											{
												OFFSET 0 0 0
											}
										}
									}
								}
							}
						}
						JOINT RightShoulder_virtual
						{
							OFFSET 0.000000 0.000000 0.000000
							CHANNELS 3 Xrotation Yrotation Zrotation
							JOINT RightShoulder
							{
								OFFSET -6.197800 13.665199 -4.064700
								CHANNELS 3 Xrotation Yrotation Zrotation
								JOINT RightArm
								{
									OFFSET -7.778100 -0.187103 -1.709300
									CHANNELS 3 Xrotation Yrotation Zrotation
									JOINT RightForeArm
									{
										OFFSET -22.049376 0.000000 0.000000
										CHANNELS 3 Xrotation Yrotation Zrotation
										JOINT RightHand
										{
											OFFSET -23.009392 0.000000 0.000000
											CHANNELS 3 Xrotation Yrotation Zrotation
											End Site
											{
												OFFSET 0 0 0
											}
										}
									}
								}
							}
						}
					}
				}
			}
		}
	}
}
MOTION
Frames: 4
Frame Time: 0.03333333
-0.258371 77.263336 0.131702 0.000000 0.000000 0.000000 -6.087198 -43.035041 -4.015241 -27.315948 5.665136 14.081960 33.889128 -14.133815 -0.508275 -4.059873 0.674719 -8.002455 0.000000 0.000000 0.000000 -6.087198 -43.035041 -4.015241 -4.361080 -13.661941 -15.699291 32.715780 -8.988091 -0.327975 -20.510592 -4.063779 17.097244 0.000000 0.000000 0.000000 -6.087198 -43.035041 -4.015241 0.000000 0.000001 0.000000 5.834015 4.645108 -1.245726 11.836539 9.037615 -3.083968 0.000000 0.000000 0.000000 11.836539 9.037618 -3.083969 -9.907369 -1.416035 0.452971 0.000000 0.000000 0.000000 11.836539 9.037618 -3.083969 1.396585 -0.734469 -7.859326 -14.236645 2.407732 -63.256813 9.875219 -47.538349 5.912063 0.000000 0.000000 0.000000 11.836539 9.037618 -3.083969 1.410914 9.461492 9.792761 1.220058 -24.270695 60.532852 -6.660681 41.858415 8.043880 0.000000 0.000000 0.000000 
0.016960 76.997314 -0.128897 0.000000 0.000000 0.000000 -4.948252 -43.809117 -3.257617 -28.967584 5.707802 14.320059 34.896290 -13.748215 -0.455797 -4.217473 0.719864 -8.065583 0.000000 0.000000 0.000000 -4.948252 -43.809117 -3.257617 -6.322170 -11.387160 -15.329255 34.687498 -10.592726 -0.533438 -20.934028 -3.967421 17.706494 0.000000 0.000000 0.000000 -4.948252 -43.809117 -3.257617 0.000000 0.000001 0.000000 5.932509 4.554980 -1.209304 12.025234 8.854460 -2.993143 0.000000 0.000000 0.000000 12.025231 8.854468 -2.993144 -10.777272 -0.439168 0.984889 0.000000 0.000000 0.000000 12.025231 8.854468 -2.993144 0.965633 -1.032577 -7.966037 -15.103292 0.865216 -62.925112 10.783007 -44.898184 6.185689 0.000000 0.000000 0.000000 12.025231 8.854468 -2.993144 0.953479 9.999498 9.272299 0.949927 -23.054617 60.574550 -5.823122 42.180827 7.329623 0.000000 0.000000 0.000000 
0.485018 76.597488 -0.532940 0.000000 0.000000 0.000000 -3.047871 -44.573388 -1.734999 -31.472914 5.647376 14.272957 36.139002 -13.194926 -0.379163 -4.216308 0.756947 -8.140093 0.000000 0.000000 0.000000 -3.047871 -44.573388 -1.734999 -9.555214 -8.835182 -15.231226 37.655687 -12.134965 -0.747634 -21.498929 -3.866021 18.368359 0.000000 0.000000 0.000000 -3.047871 -44.573388 -1.734999 0.000000 0.000000 0.000000 6.036947 4.395797 -1.227184 12.224175 8.528405 -2.981040 0.000000 0.000000 0.000000 12.224175 8.528399 -2.981035 -12.706016 0.665371 1.229649 0.000000 0.000000 0.000000 12.224175 8.528399 -2.981035 0.265565 -1.356433 -8.721383 -15.849136 -0.272493 -61.599113 11.914436 -42.970656 5.909686 0.000000 0.000000 0.000000 12.224175 8.528399 -2.981035 0.311091 10.730827 8.924904 0.830492 -21.973977 60.244563 -4.994667 43.080018 7.063698 0.000000 0.000000 0.000000 
1.044683 76.119232 -1.012896 0.000000 0.000000 0.000000 -0.810107 -45.332269 0.106270 -34.347242 5.487715 14.164055 37.512908 -12.521414 -0.292466 -4.150907 0.806538 -8.256271 0.000000 0.000000 0.000000 -0.810107 -45.332269 0.106270 -13.381261 -6.808447 -15.397157 40.844121 -12.968195 -0.872007 -22.080840 -3.693124 18.858957 0.000000 0.000000 0.000000 -0.810107 -45.332269 0.106270 0.000000 0.000000 0.000000 6.164402 4.205649 -1.281068 12.470199 8.138655 -3.034280 0.000000 0.000000 0.000000 12.470209 8.138643 -3.034275 -14.888607 1.797578 1.647219 0.000000 0.000000 0.000000 12.470209 8.138643 -3.034275 -0.375969 -1.611365 -9.419200 -16.940404 -1.632610 -60.270457 12.892823 -40.769061 5.492833 0.000000 0.000000 0.000000 12.470209 8.138643 -3.034275 -0.442262 11.779071 8.775497 0.563404 -20.903026 59.747947 -4.165705 43.767770 6.786829 0.000000 0.000000 0.000000 
